<svg width="282" height="133" viewBox="0 0 282 133" fill="none" xmlns="http://www.w3.org/2000/svg">
<g filter="url(#filter0_d_9_2)">
<path d="M50.4164 36.5511C50.1892 34.2595 49.2138 32.4792 47.4903 31.2102C45.7668 29.9413 43.4278 29.3068 40.4733 29.3068C38.4657 29.3068 36.7706 29.5909 35.388 30.1591C34.0055 30.7083 32.9448 31.4754 32.2062 32.4602C31.4865 33.4451 31.1267 34.5625 31.1267 35.8125C31.0888 36.8542 31.3066 37.7633 31.7801 38.5398C32.2725 39.3163 32.9448 39.9886 33.7971 40.5568C34.6494 41.1061 35.6342 41.589 36.7517 42.0057C37.8691 42.4034 39.0623 42.7443 40.3312 43.0284L45.5585 44.2784C48.0964 44.8466 50.4259 45.6042 52.5471 46.5511C54.6683 47.4981 56.5055 48.6629 58.0585 50.0455C59.6115 51.428 60.8142 53.0568 61.6664 54.9318C62.5377 56.8068 62.9827 58.9564 63.0017 61.3807C62.9827 64.9413 62.0736 68.0284 60.2744 70.642C58.4941 73.2367 55.9183 75.2538 52.5471 76.6932C49.1948 78.1136 45.1513 78.8239 40.4164 78.8239C35.7195 78.8239 31.6286 78.1042 28.1437 76.6648C24.6778 75.2254 21.9695 73.0947 20.0187 70.2727C18.0869 67.4318 17.0736 63.9186 16.9789 59.733H28.8823C29.0149 61.6837 29.5736 63.3125 30.5585 64.6193C31.5623 65.9072 32.8975 66.8826 34.5642 67.5455C36.2498 68.1894 38.1532 68.5114 40.2744 68.5114C42.3577 68.5114 44.1664 68.2083 45.7005 67.6023C47.2536 66.9962 48.4562 66.1534 49.3085 65.0739C50.1608 63.9943 50.5869 62.7538 50.5869 61.3523C50.5869 60.0455 50.1986 58.947 49.4221 58.0568C48.6645 57.1667 47.5471 56.4091 46.0698 55.7841C44.6115 55.1591 42.8217 54.5909 40.7005 54.0795L34.3653 52.4886C29.46 51.2955 25.5869 49.4299 22.746 46.892C19.9051 44.3542 18.4941 40.9356 18.513 36.6364C18.4941 33.1136 19.4316 30.036 21.3255 27.4034C23.2384 24.7708 25.8615 22.7159 29.1948 21.2386C32.5282 19.7614 36.3161 19.0227 40.5585 19.0227C44.8767 19.0227 48.6456 19.7614 51.8653 21.2386C55.1039 22.7159 57.6229 24.7708 59.4221 27.4034C61.2214 30.036 62.1494 33.0852 62.2062 36.5511H50.4164ZM69.0599 29.9602V19.8182H116.844V29.9602H99.0315V78H86.8724V29.9602H69.0599ZM127.632 78H114.451L134.536 19.8182H150.388L170.445 78H157.263L142.689 33.1136H142.235L127.632 78ZM126.808 55.1307H157.945V64.733H126.808V55.1307ZM177.448 78V19.8182H200.402C204.796 19.8182 208.546 20.6042 211.652 22.1761C214.777 23.7292 217.154 25.9356 218.783 28.7955C220.431 31.6364 221.255 34.9792 221.255 38.8239C221.255 42.6875 220.421 46.0114 218.755 48.7955C217.088 51.5606 214.673 53.6818 211.51 55.1591C208.366 56.6364 204.559 57.375 200.09 57.375H184.72V47.4886H198.101C200.45 47.4886 202.4 47.1667 203.953 46.5227C205.506 45.8788 206.662 44.9129 207.419 43.625C208.196 42.3371 208.584 40.7367 208.584 38.8239C208.584 36.892 208.196 35.2633 207.419 33.9375C206.662 32.6117 205.497 31.608 203.925 30.9261C202.372 30.2254 200.412 29.875 198.044 29.875H189.749V78H177.448ZM208.868 51.5227L223.328 78H209.749L195.601 51.5227H208.868ZM227.732 29.9602V19.8182H275.516V29.9602H257.703V78H245.544V29.9602H227.732Z" fill="white"/>
</g>
<g filter="url(#filter1_d_9_2)">
<path d="M17.66 111.78V107.52C17.66 106.8 17.62 106.26 17.54 105.7H19.12C19.02 106.28 19 106.74 19 107.54V111.78H22.96C23.8 111.78 24.46 111.74 25.12 111.64V113.12C24.42 113.02 23.68 112.98 22.96 112.98H19V121.22H22.34C23.2 121.22 23.8 121.18 24.5 121.08V122.54C23.82 122.44 23.12 122.4 22.34 122.4H14.7C13.92 122.4 13.2 122.44 12.54 122.54V121.08C13.22 121.18 13.84 121.22 14.68 121.22H17.66V112.98H14.22C13.5 112.98 12.74 113.02 12.06 113.12V111.64C12.7 111.74 13.4 111.78 14.24 111.78H17.66ZM9.64 121V114.6C9.64 113.74 9.64 113.36 9.68 112.16C8.98 113.44 8.52 114.06 7.48 115.24C7.32 114.96 7.24 114.82 7.12 114.64C7.1 114.64 6.98 114.48 6.82 114.28C6.8 114.24 6.74 114.18 6.68 114.1C8.1 112.6 9.16 111.1 10.08 109.28C10.82 107.8 11.34 106.34 11.5 105.26L12.9 105.72C12.76 106.08 12.66 106.28 12.5 106.74C11.86 108.46 11.62 109.06 10.94 110.36V121.06C10.94 121.94 10.96 122.7 11.04 123.4H9.52C9.6 122.68 9.64 122.04 9.64 121ZM35.22 116.5V115.12H30.52C29.7 115.12 29.22 115.14 28.64 115.22V113.98C29.14 114.06 29.62 114.08 30.56 114.08H35.22V112.78H31.04C30.38 112.78 29.84 112.8 29.4 112.86C29.46 112.4 29.48 112.04 29.48 111.52V110.64C29.48 110.1 29.46 109.78 29.4 109.28C29.92 109.34 30.36 109.36 31.06 109.36H35.22V108.04H29.42C28.5 108.04 27.78 108.08 27.18 108.16V106.84C27.72 106.92 28.3 106.96 29.46 106.96H35.22C35.22 105.98 35.2 105.68 35.1 105.16H36.56C36.44 105.66 36.42 105.94 36.42 106.96H42.54C43.7 106.96 44.3 106.92 44.84 106.84V108.16C44.18 108.08 43.52 108.04 42.58 108.04H36.42V109.36H41.02C41.72 109.36 42.16 109.34 42.66 109.28C42.6 109.78 42.58 110.08 42.58 110.64V111.52C42.58 112.08 42.6 112.36 42.66 112.86C42.22 112.8 41.68 112.78 41.04 112.78H36.42V114.08H40.78C41.94 114.08 42.48 114.06 43.02 114C42.98 114.42 42.96 114.8 42.96 115.66V116.5C44.1 116.5 44.64 116.48 45.08 116.38V117.64C44.58 117.56 44.02 117.54 42.96 117.54V118.84C42.96 119.82 43 120.36 43.08 120.84H41.78V120.02H36.42V121.68C36.42 123.06 36.02 123.34 34.08 123.34C33.66 123.34 33.3 123.32 32.18 123.26C32.14 122.76 32.06 122.5 31.84 122C32.86 122.14 33.56 122.2 34.32 122.2C35.04 122.2 35.22 122.1 35.22 121.66V120.02H30.4C29.48 120.02 29.06 120.04 28.44 120.12V118.88C29 118.96 29.4 118.98 30.36 118.98H35.22V117.54H29.22C28.12 117.54 27.58 117.56 27.04 117.64V116.38C27.52 116.46 28.08 116.5 29.22 116.5H35.22ZM36.42 116.5H41.78V115.12H36.42V116.5ZM36.42 117.54V118.98H41.78V117.54H36.42ZM35.22 110.34H30.68V111.82H35.22V110.34ZM36.42 110.34V111.82H41.38V110.34H36.42ZM49.88 106.4L51.46 106.64C51.16 107.5 50.92 108.48 50.62 109.84C50.2 111.94 50.02 113.7 50.02 116.1C50.02 117.66 50.06 118.84 50.14 119.9C50.42 118.56 50.8 117.46 51.44 116L52.4 116.46C51.5 118.44 50.78 120.84 50.78 121.96C50.78 122.02 50.78 122.12 50.78 122.26L49.34 122.38C49.3 122.06 49.28 121.96 49.22 121.58C48.84 119.46 48.7 118.02 48.7 115.92C48.7 113.08 48.94 110.96 49.6 108C49.8 107.06 49.84 106.86 49.88 106.4ZM54 110.18L54.02 108.76C54.88 108.98 55.86 109.06 57.42 109.06C59.64 109.06 61.44 108.88 62.78 108.52L62.88 109.94C62.84 109.94 62.38 110 61.5 110.12C60.34 110.28 58.74 110.38 57.2 110.38C56.08 110.38 55.3 110.32 54 110.18ZM55.46 114.08L56.56 114.68C55.56 115.78 55.06 116.74 55.06 117.62C55.06 119.1 56.32 119.82 58.9 119.82C60.72 119.82 62.42 119.56 63.5 119.12L63.7 120.66C63.44 120.68 63.4 120.7 63 120.76C61.6 121.04 60.26 121.16 58.9 121.16C56.62 121.16 55.18 120.68 54.32 119.64C53.92 119.14 53.72 118.54 53.72 117.8C53.72 116.58 54.22 115.5 55.46 114.08ZM69.2 114.1H68.8C68.04 114.1 67.62 114.12 67 114.22V112.92C67.48 113.02 67.94 113.04 68.82 113.04H83.18C84.08 113.04 84.52 113.02 85.04 112.92V114.22C84.42 114.12 83.98 114.1 83.2 114.1H75.56V121.68C75.56 122.58 75.58 123.04 75.68 123.54H74.3C74.38 123.06 74.42 122.56 74.42 121.68V121.18C71.88 121.64 71.88 121.64 68.8 122.06C68.28 122.14 67.9 122.2 67.32 122.34L67 121.02C67.3 121.02 67.3 121.02 67.34 121.02C67.68 121.02 68.36 120.98 69.2 120.9V114.1ZM70.38 114.1V115.52H74.42V114.1H70.38ZM70.38 116.46V117.94H74.42V116.46H70.38ZM70.38 118.88V120.76C72.08 120.58 72.68 120.48 74.42 120.16V118.88H70.38ZM83.18 115.42L83.88 116.16C83.74 116.36 83.68 116.46 83.52 116.74C82.56 118.44 81.96 119.28 81.06 120.18C82.14 121.06 83.3 121.66 84.92 122.22C84.66 122.5 84.38 122.92 84.16 123.32C82.46 122.6 81.3 121.9 80.22 120.96C79.04 121.96 78.34 122.4 76.76 123.16C76.5 122.68 76.36 122.5 75.98 122.14C77.58 121.48 78.4 121.02 79.42 120.18C78.4 119.06 77.88 118.22 77.22 116.52C76.9 116.54 76.66 116.56 76.24 116.6V115.42C76.7 115.48 77.14 115.5 77.94 115.5H81.66C82.4 115.5 82.88 115.48 83.18 115.42ZM82.32 116.52H78.34C78.96 117.9 79.36 118.52 80.22 119.44C81.06 118.58 81.54 117.92 82.32 116.52ZM82.68 107.62V110.34C82.68 111.06 82.7 111.42 82.76 111.92C82.12 111.86 81.48 111.84 80.7 111.84H71.54C70.66 111.84 70.1 111.86 69.38 111.92C69.44 111.46 69.46 110.98 69.46 110.34V107.62C69.46 106.96 69.44 106.48 69.38 106.02C70.06 106.08 70.64 106.1 71.56 106.1H80.6C81.52 106.1 82.08 106.08 82.76 106.02C82.7 106.5 82.68 106.9 82.68 107.62ZM70.64 107.12V108.52H81.5V107.12H70.64ZM70.64 109.48V110.88H81.5V109.48H70.64ZM95.18 106.98V106.6C95.18 106.08 95.14 105.7 95.06 105.24H96.58C96.5 105.68 96.46 106.06 96.46 106.58V106.98H102.7C103.54 106.98 104.06 106.94 104.68 106.86V108.18C104.04 108.1 103.5 108.08 102.7 108.08H89.24C88.46 108.08 87.88 108.1 87.26 108.18V106.86C87.84 106.94 88.42 106.98 89.28 106.98H95.18ZM90.58 111.92V110.82C90.58 110.18 90.56 109.72 90.52 109.3C91.04 109.36 91.56 109.38 92.42 109.38H99.84C100.62 109.38 100.98 109.36 101.54 109.3C101.5 109.88 101.48 110.16 101.48 110.84V111.92C101.48 112.8 101.48 113.04 101.54 113.48C100.96 113.42 100.56 113.4 99.7 113.4H92.32C91.56 113.4 91.16 113.42 90.52 113.48C90.56 113.06 90.58 112.7 90.58 111.92ZM91.8 110.42V112.38H100.26V110.42H91.8ZM87.92 121.56V116.44C87.92 115.74 87.9 115.24 87.84 114.64C88.42 114.7 88.98 114.72 89.82 114.72H102.22C103.2 114.72 103.64 114.7 104.16 114.64C104.1 115.26 104.08 115.7 104.08 116.4V121.7C104.08 122.38 103.96 122.72 103.62 122.94C103.3 123.16 102.96 123.22 101.9 123.22C101.44 123.22 101.32 123.22 100.04 123.16C100 122.62 99.94 122.38 99.78 121.92C100.58 122.04 101.34 122.1 102.04 122.1C102.76 122.1 102.86 122.04 102.86 121.64V115.78H89.16V121.54C89.16 122.42 89.18 122.9 89.28 123.58H87.8C87.88 123.04 87.92 122.34 87.92 121.56ZM99.96 118.38V119.68C99.96 120.4 99.98 120.7 100.02 121.1C99.5 121.06 98.88 121.04 98.18 121.04H93.1V122.14H91.8C91.86 121.72 91.9 121.2 91.9 120.48V118.48C91.9 117.84 91.88 117.44 91.84 117.02C92.3 117.06 92.72 117.08 93.46 117.08H98.26C99.02 117.08 99.5 117.06 100.02 117.02C99.98 117.42 99.96 117.72 99.96 118.38ZM93.08 118.08V120.04H98.8V118.08H93.08ZM117.08 108.74C116.78 111.52 116.02 114.58 115.12 116.68C113.96 119.32 112.78 120.52 111.34 120.52C109.44 120.52 108.02 118.44 108.02 115.64C108.02 113.6 108.78 111.62 110.12 110.12C111.72 108.36 113.9 107.46 116.58 107.46C118.82 107.46 120.78 108.16 122.08 109.44C123.34 110.66 124.02 112.4 124.02 114.32C124.02 117.42 122.34 119.98 119.44 121.22C118.54 121.6 117.78 121.84 116.4 122.14C116.2 121.48 116.08 121.28 115.7 120.8C117.16 120.56 118.1 120.3 119.04 119.86C121.24 118.86 122.58 116.72 122.58 114.26C122.58 111.98 121.42 110.14 119.4 109.24C118.66 108.92 118.08 108.78 117.08 108.74ZM115.64 108.76C114.44 108.86 113.58 109.14 112.66 109.7C110.64 110.92 109.4 113.18 109.4 115.66C109.4 117.58 110.24 119.06 111.32 119.06C112.16 119.06 112.96 118.12 113.82 116.16C114.64 114.28 115.38 111.32 115.64 108.76ZM144.02 120.92L142.88 122.18C141.3 120.16 139.04 117.98 136.48 116C135.08 117.6 134.1 118.52 132.66 119.58C131.28 120.58 130.22 121.24 128.74 121.98C128.42 121.38 128.26 121.16 127.76 120.66C129.3 120.04 130.28 119.5 131.82 118.36C135.02 116 137.5 112.84 138.96 109.34C139 109.22 139.02 109.2 139.06 109.1C139.1 109.04 139.1 109.02 139.12 108.96C138.94 108.98 138.88 108.98 138.64 108.98L131.96 109.08C131.06 109.1 130.48 109.14 129.9 109.24L129.86 107.62C130.4 107.7 130.76 107.72 131.44 107.72C131.5 107.72 131.68 107.72 131.96 107.72L139.1 107.64C139.8 107.62 140.04 107.6 140.38 107.48L141.22 108.34C141.02 108.58 140.88 108.82 140.66 109.32C139.54 111.8 138.6 113.38 137.36 114.92C139.98 116.92 141.74 118.5 144.02 120.92ZM154.48 105.48L156.06 105.94C155.8 106.32 155.8 106.32 155.36 107.26C155.18 107.64 154.98 107.98 154.74 108.36C155.02 108.32 155.02 108.32 160.92 108.26C161.42 108.24 161.78 108.18 162.08 108.06L162.98 108.96C162.76 109.28 162.74 109.34 162.4 110.28C161.02 114 159.26 116.88 157.18 118.88C155.5 120.48 153.52 121.78 150.86 123C150.54 122.4 150.36 122.18 149.88 121.76C151.58 121.1 152.66 120.52 154.02 119.58C155.58 118.5 156.5 117.68 157.48 116.42C156.04 115.12 154.58 114.08 153 113.18L153.92 112.16C155.62 113.14 156.72 113.92 158.34 115.26C159.52 113.48 160.42 111.58 161.12 109.46L154.12 109.56C152.76 111.74 151.34 113.3 149.36 114.88C148.9 114.36 148.72 114.22 148.2 113.92C150.36 112.36 152 110.52 153.3 108.22C153.94 107.06 154.32 106.2 154.48 105.48ZM167.74 115.14V113.5C168.32 113.6 168.86 113.62 170.22 113.62H181.84C183.32 113.62 183.64 113.6 184.26 113.52V115.14C183.62 115.08 183.16 115.06 181.82 115.06H170.22C168.76 115.06 168.34 115.08 167.74 115.14ZM193.64 122.62H191.92C192 122.08 192.04 121.6 192.04 120.52V108.1C192.04 107.04 192 106.56 191.92 106.06H193.64C193.56 106.58 193.54 107 193.54 108.14V111.88C196.62 112.98 198.94 114.08 202.44 116.1L201.58 117.58C199.7 116.26 196.94 114.78 194.12 113.62C193.82 113.5 193.68 113.42 193.5 113.28L193.46 113.3C193.52 113.7 193.54 113.98 193.54 114.48V120.5C193.54 121.62 193.56 122.06 193.64 122.62ZM212.94 108.54H213.26C213.92 107.14 214.16 106.44 214.22 105.8L215.82 106.08C215.64 106.34 215.64 106.34 215.3 107.16C215.04 107.8 214.78 108.34 214.68 108.52C214.92 108.5 214.92 108.5 215.1 108.5C218.3 108.34 220.3 108.1 221.4 107.74L221.52 109.1C221.2 109.12 221.08 109.14 220.72 109.2C218.64 109.48 216.54 109.64 214.12 109.72C213.52 110.9 213.02 111.7 212.32 112.56C212.12 112.8 211.72 113.26 211.64 113.32C211.5 113.42 211.4 113.5 211.38 113.52C211.38 113.54 211.36 113.54 211.36 113.54C211.36 113.56 211.36 113.56 211.36 113.56C211.38 113.6 211.38 113.6 211.4 113.62C212.12 113.06 212.12 113.06 212.32 112.92C213.24 112.28 214.3 111.94 215.34 111.94C216.82 111.94 217.72 112.68 217.98 114.16C219.44 113.58 220.58 113.16 221.46 112.84C222.44 112.5 222.5 112.48 222.82 112.26L223.46 113.66C222.42 113.84 220.62 114.44 218.12 115.42C218.16 115.94 218.16 116.14 218.16 116.64C218.16 116.9 218.16 117.34 218.14 117.74C218.12 118.18 218.12 118.46 218.12 118.64C218.12 118.92 218.12 119.08 218.16 119.36L216.8 119.38C216.86 118.94 216.92 117.72 216.92 116.5C216.92 116.18 216.92 116.14 216.9 115.9C214.18 117.18 213.14 118.12 213.14 119.32C213.14 120.64 214.38 121.22 217.2 121.22C219.18 121.22 221.4 120.9 222.54 120.44L222.72 121.98C222.42 122 222.32 122.02 221.92 122.08C220.34 122.34 218.6 122.48 217.06 122.48C213.48 122.48 211.74 121.46 211.74 119.4C211.74 118.3 212.42 117.26 213.78 116.24C214.46 115.74 215.42 115.22 216.76 114.64C216.6 113.54 216.12 113.06 215.18 113.06C213.92 113.06 212.34 113.8 210.72 115.18C209.94 115.84 209.5 116.3 209.18 116.84L208.06 115.72C209.44 114.66 211.1 112.56 212.54 110C212.6 109.9 212.6 109.9 212.72 109.7C212.64 109.72 212.44 109.74 212.34 109.74C212.02 109.74 210.14 109.7 209.4 109.68C209.3 109.68 209.14 109.68 209.08 109.68C208.9 109.68 208.86 109.68 208.64 109.7L208.66 108.32C209.38 108.46 210.9 108.54 212.94 108.54ZM230.1 117.3C231.76 117.3 233.1 118.64 233.1 120.3C233.1 121.96 231.76 123.3 230.1 123.3C228.44 123.3 227.1 121.96 227.1 120.3C227.1 118.64 228.44 117.3 230.1 117.3ZM230.1 118.44C229.08 118.44 228.24 119.28 228.24 120.3C228.24 121.32 229.08 122.16 230.1 122.16C231.12 122.16 231.96 121.32 231.96 120.3C231.96 119.28 231.12 118.44 230.1 118.44Z" fill="white"/>
</g>
<defs>
<filter id="filter0_d_9_2" x="10.979" y="17.0227" width="270.537" height="71.8011" filterUnits="userSpaceOnUse" color-interpolation-filters="sRGB">
<feFlood flood-opacity="0" result="BackgroundImageFix"/>
<feColorMatrix in="SourceAlpha" type="matrix" values="0 0 0 0 0 0 0 0 0 0 0 0 0 0 0 0 0 0 127 0" result="hardAlpha"/>
<feOffset dy="4"/>
<feGaussianBlur stdDeviation="3"/>
<feColorMatrix type="matrix" values="0 0 0 0 0 0 0 0 0 0 0 0 0 0 0 0 0 0 0.251 0"/>
<feBlend mode="normal" in2="BackgroundImageFix" result="effect1_dropShadow_9_2"/>
<feBlend mode="normal" in="SourceGraphic" in2="effect1_dropShadow_9_2" result="shape"/>
</filter>
<filter id="filter1_d_9_2" x="0.679932" y="102.16" width="238.42" height="30.42" filterUnits="userSpaceOnUse" color-interpolation-filters="sRGB">
<feFlood flood-opacity="0" result="BackgroundImageFix"/>
<feColorMatrix in="SourceAlpha" type="matrix" values="0 0 0 0 0 0 0 0 0 0 0 0 0 0 0 0 0 0 127 0" result="hardAlpha"/>
<feOffset dy="3"/>
<feGaussianBlur stdDeviation="3"/>
<feColorMatrix type="matrix" values="0 0 0 0 0 0 0 0 0 0 0 0 0 0 0 0 0 0 0.412 0"/>
<feBlend mode="normal" in2="BackgroundImageFix" result="effect1_dropShadow_9_2"/>
<feBlend mode="normal" in="SourceGraphic" in2="effect1_dropShadow_9_2" result="shape"/>
</filter>
</defs>
</svg>
