<svg width="167" height="34" viewBox="0 0 167 34" fill="none" xmlns="http://www.w3.org/2000/svg">
<path d="M56.456 30.167C56.456 30.7777 56.8297 31.083 57.577 31.083V32H49.731V31.084C49.9638 31.0858 50.1897 31.0046 50.368 30.855C50.4644 30.7698 50.5398 30.6634 50.5884 30.5443C50.6369 30.4251 50.6573 30.2963 50.648 30.168V9.905H42.242C41.9271 9.90761 41.6187 9.99575 41.35 10.16C41.1967 10.2665 41.0753 10.4129 40.999 10.5833C40.9227 10.7537 40.8944 10.9417 40.917 11.127H40V4H40.917C40.8944 4.18533 40.9227 4.37332 40.999 4.54372C41.0753 4.71412 41.1967 4.86047 41.35 4.967C41.6187 5.13125 41.9271 5.21939 42.242 5.222H64.862C65.1769 5.21939 65.4853 5.13125 65.754 4.967C65.9073 4.86047 66.0287 4.71412 66.105 4.54372C66.1813 4.37332 66.2096 4.18533 66.187 4H67.104V11.127H66.183C66.2056 10.9417 66.1773 10.7537 66.101 10.5833C66.0247 10.4129 65.9033 10.2665 65.75 10.16C65.4813 9.99575 65.1729 9.90761 64.858 9.905H56.452L56.456 30.167ZM88.42 21.615L84.14 12.15L79.351 21.619L88.42 21.615ZM69.213 31.084C69.4242 31.0547 69.6267 30.9805 69.8068 30.8663C69.9869 30.7521 70.1404 30.6006 70.257 30.422C70.5315 30.015 70.7784 29.5901 70.996 29.15L80.421 9.35C80.659 8.90867 80.8713 8.50133 81.058 8.128C81.2236 7.83111 81.3193 7.50041 81.338 7.161C81.3514 7.02062 81.3251 6.8793 81.2619 6.75321C81.1988 6.62711 81.1014 6.52134 80.981 6.448C80.7415 6.31173 80.4845 6.2091 80.217 6.143V5.227H88.827V6.143C88.5812 6.21409 88.3425 6.30782 88.114 6.423C87.9887 6.49743 87.888 6.60708 87.8245 6.73831C87.761 6.86953 87.7375 7.01653 87.757 7.161C87.7589 7.4421 87.8195 7.71971 87.935 7.976C88.0537 8.24733 88.232 8.60367 88.47 9.045L99.07 29.765C99.2085 30.1019 99.4491 30.3869 99.758 30.58C100.08 30.7668 100.411 30.9367 100.751 31.089V32H91.783V31.084C91.962 31.0717 92.1359 31.0194 92.292 30.931C92.3831 30.8942 92.461 30.8309 92.5156 30.7492C92.5702 30.6675 92.5989 30.5712 92.598 30.473C92.5612 30.0073 92.4218 29.5555 92.19 29.15L90.254 25.382H77.823L75.989 28.997C75.7252 29.4694 75.5535 29.9876 75.483 30.524C75.483 30.8973 75.8057 31.084 76.451 31.084V32H69.213V31.084ZM121.301 17.135C122.327 17.154 123.352 17.0601 124.358 16.855C125.049 16.7204 125.706 16.4524 126.294 16.066C126.736 15.7658 127.088 15.351 127.313 14.866C127.52 14.3932 127.624 13.882 127.619 13.366C127.624 12.85 127.52 12.3388 127.313 11.866C127.088 11.381 126.736 10.9662 126.294 10.666C125.706 10.2796 125.049 10.0116 124.358 9.877C123.352 9.67189 122.327 9.57799 121.301 9.597H112.483V17.132L121.301 17.135ZM122.626 5.222C124.115 5.20795 125.6 5.35311 127.058 5.655C128.271 5.89828 129.428 6.3645 130.471 7.03C131.404 7.63749 132.16 8.48059 132.662 9.474C133.204 10.6268 133.466 11.8916 133.426 13.165C133.489 14.115 133.343 15.0672 133 15.9553C132.657 16.8433 132.124 17.6459 131.439 18.307C129.914 19.5873 128.061 20.4161 126.09 20.7L132.866 30.373C133.056 30.6784 133.358 30.8976 133.707 30.984C134 31.048 134.299 31.0815 134.599 31.084V32H125.071V31.084C125.342 31.0908 125.612 31.0386 125.861 30.931C126.082 30.829 126.192 30.6933 126.192 30.524C126.18 30.3144 126.111 30.1122 125.992 29.939C125.859 29.7183 125.655 29.4213 125.381 29.048L119.781 21.106H112.483V30.168C112.475 30.3013 112.501 30.4344 112.559 30.5547C112.617 30.675 112.705 30.7784 112.814 30.855C113.185 31.0412 113.601 31.1205 114.014 31.084V32H105.201V31.084C106.186 31.084 106.678 30.7787 106.678 30.168V7.05C106.678 6.43933 106.186 6.134 105.201 6.134V5.218L122.626 5.222ZM156.352 30.167C156.352 30.7777 156.726 31.083 157.473 31.083V32H149.627V31.084C149.86 31.0858 150.086 31.0046 150.264 30.855C150.36 30.7698 150.436 30.6634 150.484 30.5443C150.533 30.4251 150.553 30.2963 150.544 30.168V9.905H142.138C141.823 9.90761 141.515 9.99575 141.246 10.16C141.093 10.2665 140.971 10.4129 140.895 10.5833C140.819 10.7537 140.79 10.9417 140.813 11.127H139.896V4H140.813C140.79 4.18533 140.819 4.37332 140.895 4.54372C140.971 4.71412 141.093 4.86047 141.246 4.967C141.515 5.13125 141.823 5.21939 142.138 5.222H164.758C165.073 5.21939 165.381 5.13125 165.65 4.967C165.803 4.86047 165.925 4.71412 166.001 4.54372C166.077 4.37332 166.106 4.18533 166.083 4H167V11.127H166.083C166.106 10.9417 166.077 10.7537 166.001 10.5833C165.925 10.4129 165.803 10.2665 165.65 10.16C165.381 9.99575 165.073 9.90761 164.758 9.905H156.352V30.167Z" fill="#212121"/>
<path d="M3.451 23.637L4.078 23.945C4.07169 24.2906 4.15838 24.6315 4.329 24.932C4.77017 25.5553 5.36419 26.0546 6.054 26.382C6.99681 26.8915 7.98385 27.3146 9.003 27.646C10.1417 28.0238 11.3051 28.3225 12.485 28.54C13.5597 28.7521 14.6516 28.8656 15.747 28.879C16.4583 28.879 17.3783 28.8277 18.507 28.725C19.6345 28.6225 20.7485 28.4053 21.832 28.077C22.8421 27.7854 23.7963 27.3268 24.655 26.72C25.0288 26.4698 25.3338 26.1298 25.5421 25.7311C25.7504 25.3324 25.8552 24.8878 25.847 24.438C25.8725 24.021 25.7835 23.6049 25.5896 23.2348C25.3957 22.8646 25.1044 22.5545 24.747 22.338C23.856 21.8297 22.8767 21.4948 21.861 21.351C20.5117 21.13 19.1495 20.9963 17.783 20.951C16.2563 20.889 14.6983 20.7964 13.109 20.673C11.5409 20.5524 9.98063 20.3464 8.435 20.056C7.00458 19.8025 5.62638 19.3125 4.357 18.606C3.17651 17.9386 2.18379 16.9837 1.471 15.83C0.680151 14.4302 0.29897 12.8362 0.371 11.23C0.378884 9.92215 0.690401 8.63397 1.281 7.46702C1.93971 6.17166 2.89663 5.05125 4.073 4.19802C5.51763 3.15878 7.13057 2.37633 8.841 1.88502C11.0425 1.25083 13.3264 0.949496 15.617 0.991017C17.5525 0.96583 19.4858 1.13096 21.389 1.48402C22.8174 1.76249 24.2308 2.1126 25.624 2.53302C26.816 2.90302 27.8197 3.25269 28.635 3.58202C29.2783 3.87108 29.9697 4.03825 30.674 4.07502C31.1244 4.11849 31.5742 3.98589 31.929 3.70502L32.682 4.19802L28.357 11.916L27.73 11.669C27.6726 11.1643 27.5017 10.6792 27.23 10.25C26.7829 9.65596 26.2164 9.16205 25.567 8.80002C24.7035 8.28542 23.7889 7.86182 22.838 7.53602C21.7336 7.15048 20.6008 6.85158 19.45 6.64202C18.25 6.41714 17.0319 6.30366 15.811 6.30302C14.8551 6.30463 13.9006 6.37582 12.955 6.51602C12.0468 6.6418 11.1536 6.8589 10.289 7.16402C9.56236 7.41215 8.89115 7.79973 8.313 8.30502C8.06177 8.52293 7.86136 8.79328 7.72591 9.09702C7.59045 9.40075 7.52324 9.7305 7.529 10.063C7.50347 10.4969 7.59149 10.9299 7.78439 11.3194C7.97729 11.7089 8.2684 12.0414 8.629 12.284C9.51056 12.8364 10.4905 13.2133 11.515 13.394C12.8591 13.661 14.2212 13.8275 15.59 13.892C17.1167 13.974 18.6747 14.0767 20.264 14.2C21.8337 14.3208 23.3946 14.5372 24.938 14.848C26.3675 15.1208 27.7443 15.6204 29.016 16.328C30.1905 16.9898 31.1822 17.9331 31.902 19.073C32.6894 20.4378 33.071 21.9989 33.002 23.573C33.0821 25.4724 32.4682 27.336 31.275 28.816C30.0987 30.1922 28.6295 31.2879 26.975 32.023C25.2128 32.8189 23.3425 33.35 21.425 33.599C19.5853 33.8556 17.7305 33.9892 15.873 33.999C13.8685 34.0261 11.8651 33.8924 9.882 33.599C8.51621 33.3942 7.17197 33.0652 5.866 32.616C5.00177 32.3085 4.15368 31.9574 3.325 31.564C2.82168 31.2889 2.26285 31.1306 1.69 31.101C1.52465 31.1127 1.36444 31.1634 1.22257 31.2491C1.08069 31.3349 0.961223 31.4531 0.874 31.594L0 31.101L3.451 23.637Z" fill="#DD1B57"/>
</svg>
