<svg width="60" height="60" viewBox="0 0 60 60" fill="none" xmlns="http://www.w3.org/2000/svg">
<path d="M52.646 4.64398H7.35402C6.01555 4.65323 4.73511 5.1917 3.79231 6.14181C2.8495 7.09192 2.32093 8.37648 2.32202 9.71498V40.144C2.3212 41.4823 2.84988 42.7666 3.79266 43.7165C4.73544 44.6664 6.01573 45.2047 7.35402 45.214H24.968V50.285H19.935V55.356H40.065V50.285H35.032V45.214H52.646C53.9843 45.2047 55.2646 44.6664 56.2074 43.7165C57.1502 42.7666 57.6788 41.4823 57.678 40.144V9.71498C57.6791 8.37648 57.1505 7.09192 56.2077 6.14181C55.2649 5.1917 53.9845 4.65323 52.646 4.64398ZM52.646 40.144H7.35402V9.71498H52.646V40.144Z" fill="#DD1B57"/>
</svg>
