<svg width="61" height="60" viewBox="0 0 61 60" fill="none" xmlns="http://www.w3.org/2000/svg">
<path d="M50.2318 15.328H40.5088V10.51C40.5081 9.87376 40.3816 9.24393 40.1365 8.6568C39.8914 8.06967 39.5326 7.53684 39.0806 7.089C38.6287 6.64116 38.0926 6.28716 37.5033 6.0474C36.914 5.80764 36.283 5.68685 35.6468 5.692H25.9238C25.2876 5.68685 24.6566 5.80764 24.0673 6.0474C23.4779 6.28716 22.9419 6.64116 22.4899 7.089C22.038 7.53684 21.6792 8.06967 21.434 8.6568C21.1889 9.24393 21.0624 9.87376 21.0618 10.51V15.328H11.3398C10.7048 15.3231 10.0752 15.4442 9.48736 15.6844C8.89954 15.9245 8.36521 16.279 7.91532 16.7271C7.46544 17.1752 7.10893 17.7081 6.86646 18.295C6.624 18.8819 6.50038 19.511 6.50278 20.146L6.47778 46.643C6.47842 47.2792 6.60494 47.9091 6.85005 48.4962C7.09516 49.0833 7.45401 49.6162 7.90594 50.064C8.35787 50.5118 8.89394 50.8658 9.48328 51.1056C10.0726 51.3454 10.7036 51.4661 11.3398 51.461H50.2318C50.868 51.4661 51.499 51.3454 52.0883 51.1056C52.6776 50.8658 53.2137 50.5118 53.6656 50.064C54.1176 49.6162 54.4764 49.0833 54.7215 48.4962C54.9666 47.9091 55.0931 47.2792 55.0938 46.643V20.143C55.0928 19.507 54.9659 18.8775 54.7207 18.2907C54.4754 17.7039 54.1165 17.1715 53.6646 16.7239C53.2127 16.2764 52.6767 15.9227 52.0876 15.6831C51.4985 15.4435 50.8678 15.3229 50.2318 15.328ZM35.6468 15.328H25.9238V10.51H35.6468V15.328Z" fill="#DD1B57"/>
</svg>
