<svg width="60" height="60" viewBox="0 0 60 60" fill="none" xmlns="http://www.w3.org/2000/svg">
<path d="M37.2091 27.393V12.852L30.0001 5.58099L22.7901 12.852V17.699H8.37109V51.629H51.6291V27.393H37.2091ZM17.9841 46.781H13.1771V41.935H17.9831L17.9841 46.781ZM17.9841 37.087H13.1771V32.24H17.9831L17.9841 37.087ZM17.9841 27.393H13.1771V22.546H17.9831L17.9841 27.393ZM32.4031 46.781H27.5971V41.935H32.4031V46.781ZM32.4031 37.087H27.5971V32.24H32.4031V37.087ZM32.4031 27.393H27.5971V22.546H32.4031V27.393ZM32.4031 17.699H27.5971V12.852H32.4031V17.699ZM46.8221 46.781H42.0161V41.935H46.8221V46.781ZM46.8221 37.087H42.0161V32.24H46.8221V37.087Z" fill="#DD1B57"/>
</svg>
